HIERARCHY
ROOT Hips
{
	OFFSET -0.001795 -0.223333 0.028219
	CHANNELS 6 Xposition Yposition Zposition Zrotation Yrotation Xrotation 
	JOINT LeftUpLeg
	{
		OFFSET 0.069520 -0.091406 -0.006815
		CHANNELS 3 Zrotation Yrotation Xrotation
		JOINT LeftLeg
		{
			OFFSET 0.034277 -0.375199 -0.004496
			CHANNELS 3 Zrotation Yrotation Xrotation
			JOINT LeftFoot
			{
				OFFSET -0.013596 -0.397961 -0.043693
				CHANNELS 3 Zrotation Yrotation Xrotation
				JOINT LeftToe
				{
					OFFSET 0.026358 -0.055791 0.119288
					CHANNELS 3 Zrotation Yrotation Xrotation
					End Site
					{
						OFFSET 0.000000 0.000000 0.000000
					}
				}
			}
		}
	}
	JOINT RightUpLeg
	{
		OFFSET -0.067670 -0.090522 -0.004320
		CHANNELS 3 Zrotation Yrotation Xrotation
		JOINT RightLeg
		{
			OFFSET -0.038290 -0.382569 -0.008850
			CHANNELS 3 Zrotation Yrotation Xrotation
			JOINT RightFoot
			{
				OFFSET 0.015774 -0.398415 -0.042312
				CHANNELS 3 Zrotation Yrotation Xrotation
				JOINT RightToe
				{
					OFFSET -0.025372 -0.048144 0.123348
					CHANNELS 3 Zrotation Yrotation Xrotation
					End Site
					{
						OFFSET 0.000000 0.000000 0.000000
					}
				}
			}
		}
	}
	JOINT Spine
	{
		OFFSET -0.002533 0.108963 -0.026696
		CHANNELS 3 Zrotation Yrotation Xrotation
		JOINT Spine1
		{
			OFFSET 0.005487 0.135180 0.001092
			CHANNELS 3 Zrotation Yrotation Xrotation
			JOINT Spine2
			{
				OFFSET 0.001457 0.052922 0.025425
				CHANNELS 3 Zrotation Yrotation Xrotation
				JOINT Neck
				{
					OFFSET -0.002778 0.213870 -0.042857
					CHANNELS 3 Zrotation Yrotation Xrotation
					JOINT Head
					{
						OFFSET 0.005152 0.064970 0.051349
						CHANNELS 3 Zrotation Yrotation Xrotation
						End Site
						{
							OFFSET 0.000000 0.000000 0.000000
						}
					}
				}
				JOINT LeftShoulder
				{
					OFFSET 0.078845 0.121749 -0.034090
					CHANNELS 3 Zrotation Yrotation Xrotation
					JOINT LeftArm
					{
						OFFSET 0.090977 0.030469 -0.008868
						CHANNELS 3 Zrotation Yrotation Xrotation
						JOINT LeftForeArm
						{
							OFFSET 0.259612 -0.012772 -0.027456
							CHANNELS 3 Zrotation Yrotation Xrotation
							JOINT LeftHand
							{
								OFFSET 0.249234 0.008986 -0.001171
								CHANNELS 3 Zrotation Yrotation Xrotation
								End Site
								{
									OFFSET 0.000000 0.000000 0.000000
								}
							}
						}
					}
				}
				JOINT RightShoulder
				{
					OFFSET -0.081759 0.118833 -0.038615
					CHANNELS 3 Zrotation Yrotation Xrotation
					JOINT RightArm
					{
						OFFSET -0.096012 0.032551 -0.009143
						CHANNELS 3 Zrotation Yrotation Xrotation
						JOINT RightForeArm
						{
							OFFSET -0.253742 -0.013329 -0.021401
							CHANNELS 3 Zrotation Yrotation Xrotation
							JOINT RightHand
							{
								OFFSET -0.255298 0.007772 -0.005559
								CHANNELS 3 Zrotation Yrotation Xrotation
								End Site
								{
									OFFSET 0.000000 0.000000 0.000000
								}
							}
						}
					}
				}
			}
		}
	}
}
MOTION
Frames: 10
Frame Time: 0.050000
0.000000 0.935522 0.000000 0.983830 -6.819370 3.087418 7.968132 -0.081455 -2.505864 -5.954015 1.047665 9.983793 6.362104 13.796451 4.285694 0.000000 0.000000 0.000000 -0.479547 1.635096 -15.850549 4.114567 -0.160645 13.586303 -0.975850 -4.296653 3.433074 0.000000 0.000000 0.000000 7.686075 -0.714086 5.675247 -1.314291 0.624475 -0.791949 -4.354503 -1.685688 4.868581 8.298013 -3.669723 -20.189324 0.000000 0.000000 0.000000 -28.669949 -17.501065 10.571644 -38.982065 -25.071085 2.531128 -12.971110 -47.211817 8.145043 0.000000 0.000000 0.000000 19.427821 8.205782 1.387209 49.440650 14.345566 1.309938 19.245465 57.350520 11.402416 0.000000 0.000000 0.000000 
0.004030 0.939013 -0.005594 0.284282 -5.600628 5.043776 10.169557 -0.113627 -3.574968 -7.139277 1.257359 9.855796 6.050823 13.372624 5.992090 0.000000 0.000000 0.000000 -0.995874 1.839230 -18.326307 5.493375 -0.485367 14.149424 -1.863055 -6.327854 3.496831 0.000000 0.000000 0.000000 9.362059 -0.673336 3.817705 -1.897769 0.916615 0.797282 -5.049877 -1.667009 3.426899 8.864294 -3.666928 -21.098919 0.000000 0.000000 0.000000 -29.213492 -16.460676 9.542678 -37.203974 -26.319888 2.903016 -17.169824 -51.397206 10.985293 0.000000 0.000000 0.000000 15.161293 8.131832 1.836264 51.843185 14.060884 1.282736 20.637158 59.892877 12.959903 0.000000 0.000000 0.000000 
0.009855 0.938859 -0.013762 -0.113616 -5.412623 5.191203 11.349930 -0.107888 -1.024773 -7.976889 1.361747 8.505544 8.397256 17.619211 7.148523 0.000000 0.000000 0.000000 -0.302072 2.049334 -19.468834 4.399200 -0.243876 14.946989 -1.672163 -6.390545 4.721864 0.000000 0.000000 0.000000 10.019034 -0.669010 3.469032 -2.619877 1.219052 -1.540982 -4.444644 0.416507 6.243641 8.700495 -3.230092 -22.914121 0.000000 0.000000 0.000000 -27.237541 -18.731363 10.141936 -36.938542 -26.486572 2.943960 -15.111911 -55.677107 10.765926 0.000000 0.000000 0.000000 15.133500 7.132185 1.843783 50.456781 16.165604 1.730701 19.794328 62.527510 13.967281 0.000000 0.000000 0.000000 
0.017459 0.936956 -0.025541 0.003618 -5.731313 5.651211 12.366146 -0.133472 1.434237 -10.948636 2.043985 9.198056 12.585814 24.320160 10.721687 0.000000 0.000000 0.000000 -0.576798 2.267816 -21.562236 5.049469 -0.360611 16.071725 -2.404277 -8.213350 5.158312 0.000000 0.000000 0.000000 9.979922 -0.664280 3.363639 -2.131070 0.979329 -2.698279 -5.287146 1.039913 6.430643 9.307453 -2.869922 -26.749529 0.000000 0.000000 0.000000 -27.122477 -17.713256 9.260687 -35.880736 -27.965959 3.275193 -15.628930 -57.244637 11.382386 0.000000 0.000000 0.000000 13.700042 7.951653 2.416200 49.735422 17.461169 2.197503 23.658221 66.588244 17.899722 0.000000 0.000000 0.000000 
0.026972 0.933019 -0.041043 -0.054051 -5.442202 5.420527 12.464038 -0.166049 4.159937 -11.650329 2.337424 11.006399 15.080388 27.537818 14.302445 0.000000 0.000000 0.000000 -1.199882 2.351713 -23.176027 6.181853 -0.635383 17.078990 -2.446934 -8.760912 6.537883 0.000000 0.000000 0.000000 9.841606 -0.732461 4.018940 -2.515502 1.135891 -3.880260 -4.861728 0.847123 7.433209 9.790011 -3.090655 -27.271334 0.000000 0.000000 0.000000 -25.857815 -18.150186 9.504226 -34.672836 -28.716480 3.225256 -12.359236 -60.130812 10.205542 0.000000 0.000000 0.000000 13.925779 9.846882 3.318724 48.317944 19.422404 2.796051 21.879799 69.040157 17.523640 0.000000 0.000000 0.000000 
0.038582 0.928608 -0.058855 -0.163186 -4.306988 5.535881 12.880188 -0.267532 6.444619 -12.756422 2.684584 12.664351 16.454148 29.258288 15.431943 0.000000 0.000000 0.000000 -1.725692 2.413272 -24.979759 7.054636 -0.913237 17.826938 -3.732503 -11.347834 6.354045 0.000000 0.000000 0.000000 9.681144 -0.674346 3.497142 -2.726383 1.236637 -3.957454 -4.559959 2.169457 7.807850 9.692632 -2.675048 -28.245019 0.000000 0.000000 0.000000 -25.189462 -19.522369 9.574053 -34.480918 -29.041665 3.469882 -11.656755 -61.365262 9.700498 0.000000 0.000000 0.000000 14.786674 10.259163 3.963917 46.987385 20.533645 2.988729 24.442050 73.172749 21.680869 0.000000 0.000000 0.000000 
0.052662 0.924878 -0.079195 -0.747006 -2.894678 5.611697 13.316818 -0.401777 8.255955 -13.556749 2.875947 13.567439 16.542432 28.988962 17.419476 0.000000 0.000000 0.000000 -2.583087 2.371839 -26.901172 8.533520 -1.392582 18.511067 -4.419731 -12.977693 7.790991 0.000000 0.000000 0.000000 9.754200 -0.643117 3.093535 -2.626307 1.205127 -4.075616 -4.526441 2.709940 7.537128 10.192438 -2.714212 -28.433460 0.000000 0.000000 0.000000 -24.533281 -19.113212 8.708977 -35.786943 -27.829908 3.491923 -13.933235 -63.343372 11.213861 0.000000 0.000000 0.000000 16.586214 9.626360 4.014316 46.393746 21.235321 3.123315 32.627666 75.590764 29.761022 0.000000 0.000000 0.000000 
0.069963 0.920248 -0.103459 -0.838787 -1.641768 5.143218 12.573635 -0.420580 10.472392 -13.769393 2.790251 13.081992 16.332482 28.418941 19.127262 0.000000 0.000000 0.000000 -4.453763 1.958513 -27.419807 10.617728 -1.948047 16.892747 -4.851178 -13.977401 9.428132 0.000000 0.000000 0.000000 9.209078 -0.515969 2.313307 -3.117573 1.434129 -3.782010 -3.811061 3.392744 8.108637 10.099212 -2.518568 -28.566780 0.000000 0.000000 0.000000 -22.250015 -19.221595 8.118624 -37.666113 -27.127233 3.627343 -15.335956 -65.745834 12.336392 0.000000 0.000000 0.000000 18.328942 9.584954 4.442477 46.577461 22.458671 3.430971 36.540696 76.999817 34.446965 0.000000 0.000000 0.000000 
0.090640 0.915349 -0.134143 -1.297811 1.448179 4.096347 12.314736 -0.552613 11.315147 -12.726123 2.293631 12.334809 13.099007 24.494526 16.802682 0.000000 0.000000 0.000000 -5.594871 1.509014 -27.814120 11.200058 -2.147614 14.546282 -6.571228 -17.106875 12.188298 0.000000 0.000000 0.000000 9.193851 -0.483029 2.139840 -3.187378 1.497086 -3.529690 -3.589601 2.980134 7.890948 9.739530 -2.293202 -27.894332 0.000000 0.000000 0.000000 -22.887439 -19.375457 7.746913 -37.994400 -25.185950 3.262591 -19.323908 -67.089693 14.912331 0.000000 0.000000 0.000000 20.224964 10.253554 5.338769 46.072172 22.798806 3.341934 34.203283 77.515144 33.371429 0.000000 0.000000 0.000000 
0.113932 0.907992 -0.172541 -1.713315 3.673289 3.021281 11.084962 -0.504010 12.042621 -11.293376 1.761811 10.556730 10.514647 21.037274 9.157105 0.000000 0.000000 0.000000 -7.186197 0.949849 -27.153395 11.490754 -2.150682 11.776344 -7.462843 -18.424454 13.023607 0.000000 0.000000 0.000000 9.537299 -0.580248 2.922824 -3.692908 1.738509 -3.991818 -3.724285 4.657457 9.142582 10.564163 -2.324354 -28.228540 0.000000 0.000000 0.000000 -22.296671 -21.716683 8.050274 -37.624015 -24.517688 3.232162 -17.504775 -68.429501 13.203174 0.000000 0.000000 0.000000 23.494540 8.669252 5.764217 44.082050 23.883838 2.912836 36.990265 78.993557 38.041892 0.000000 0.000000 0.000000 
